<svg xmlns="http://www.w3.org/2000/svg" width="1024" height="1024" viewBox="0 0 1024 1024">
<g>
<path d="M 771.83,796.86 C768.71,796.44 761.96,794.45 756.83,792.44 C743.81,787.34 738.51,786.03 730.89,786.01 C725.51,786.00 723.19,786.56 718.39,789.00 L 712.50,792.00 L 710.33,789.33 C705.31,783.17 705.26,782.35 709.57,777.85 C714.36,772.85 721.66,768.01 724.45,767.98 C726.14,767.97 726.24,767.80 725.00,767.00 C724.17,766.47 722.53,766.02 721.35,766.02 C720.17,766.01 715.22,764.00 710.35,761.55 C690.20,751.43 677.80,731.57 676.31,707.00 C675.09,687.02 681.45,669.53 694.84,656.03 C703.85,646.95 712.49,641.82 723.51,639.00 C747.49,632.86 771.02,640.72 787.83,660.47 C799.76,674.49 804.84,697.76 800.50,718.50 C796.66,736.85 783.17,754.28 766.87,761.94 C757.94,766.14 757.96,766.28 767.43,767.95 C779.10,770.01 787.28,768.79 794.03,763.98 L 796.93,761.91 L 801.53,771.06 L 806.13,780.21 L 803.60,784.02 C800.57,788.61 795.95,792.27 789.94,794.85 C784.36,797.25 779.07,797.84 771.83,796.86 M 750.82,737.46 C757.68,735.42 763.10,730.13 767.21,721.44 C770.34,714.84 770.50,713.94 770.48,703.00 C770.46,689.19 768.42,682.90 761.42,675.12 C755.51,668.55 750.17,666.50 739.00,666.50 C731.69,666.50 729.69,666.90 724.73,669.33 C711.77,675.70 704.83,693.18 707.94,711.63 C710.13,724.65 718.13,734.95 728.36,737.91 C733.39,739.37 745.20,739.13 750.82,737.46 M 167.50,767.35 C150.84,762.89 139.28,756.30 129.22,745.53 C111.23,726.26 106.90,699.89 117.90,676.50 C121.89,668.02 128.97,658.85 135.72,653.45 C143.32,647.36 157.75,640.35 166.50,638.51 C185.21,634.57 207.67,638.65 221.81,648.57 C221.98,648.69 219.38,654.26 216.02,660.95 L 209.93,673.12 L 206.71,671.15 C197.68,665.61 180.96,664.19 168.91,667.93 C158.09,671.30 150.79,677.93 145.71,689.00 C144.15,692.43 143.64,695.65 143.58,702.52 C143.51,710.76 143.78,712.10 146.77,718.19 C150.88,726.53 158.76,733.98 166.75,737.10 C171.39,738.90 174.63,739.35 183.50,739.42 C194.87,739.50 194.76,739.53 208.70,733.36 C209.45,733.02 212.16,737.35 215.94,744.88 L 221.98,756.93 L 217.45,759.58 C208.13,765.04 198.79,767.24 183.50,767.58 C175.80,767.75 168.60,767.65 167.50,767.35 M 233.00,702.51 L 233.00,639.00 L 247.50,639.00 L 262.00,639.00 L 262.00,690.00 L 262.00,741.00 L 283.48,741.00 L 304.96,741.00 L 305.58,743.46 C305.92,744.81 306.02,750.32 305.81,755.71 L 305.43,765.50 L 269.22,765.76 L 233.00,766.02 L 233.00,702.51 M 320.00,702.49 L 320.00,638.98 L 356.25,639.24 L 392.50,639.50 L 392.50,652.00 L 392.50,664.50 L 370.75,664.77 L 349.00,665.04 L 349.00,677.52 L 349.00,690.00 L 370.00,690.00 L 391.00,690.00 L 391.00,702.50 L 391.00,715.00 L 370.00,715.00 L 349.00,715.00 L 349.00,728.00 L 349.00,741.00 L 371.00,741.00 L 393.00,741.00 L 393.00,753.50 L 393.00,766.00 L 356.50,766.00 L 320.00,766.00 L 320.00,702.49 M 396.00,765.52 C396.00,765.00 427.65,686.34 439.46,657.50 L 446.84,639.50 L 459.87,639.22 C472.47,638.95 472.94,639.02 474.09,641.18 C474.75,642.41 479.45,653.78 484.54,666.46 C489.62,679.13 499.06,702.55 505.51,718.50 C521.52,758.10 524.00,764.36 524.00,765.27 C524.00,765.70 517.14,765.93 508.75,765.78 L 493.50,765.50 L 489.00,753.26 L 484.50,741.01 L 460.08,741.26 L 435.66,741.50 L 431.19,753.75 L 426.72,766.00 L 411.36,766.00 C402.91,766.00 396.00,765.79 396.00,765.52 M 473.52,713.19 C473.16,712.26 470.12,704.17 466.77,695.21 C463.42,686.25 460.34,679.27 459.92,679.71 C458.88,680.79 446.11,714.36 446.49,714.99 C446.66,715.27 452.96,715.36 460.49,715.19 C472.87,714.92 474.11,714.73 473.52,713.19 M 530.00,702.50 L 530.00,639.00 L 554.75,639.02 C581.64,639.04 589.03,639.95 597.63,644.32 C604.31,647.71 609.78,653.31 612.89,659.93 C615.23,664.93 615.50,666.69 615.50,677.02 C615.50,688.03 615.35,688.84 612.21,695.23 C608.63,702.50 603.76,707.34 596.20,711.14 C593.62,712.44 591.34,713.59 591.14,713.69 C590.94,713.80 600.28,725.35 611.89,739.37 C623.50,753.38 633.00,765.11 633.00,765.42 C633.00,765.74 624.96,766.00 615.14,766.00 L 597.28,766.00 L 578.43,741.50 C568.06,728.02 559.33,717.00 559.04,717.00 C558.74,717.00 558.64,728.02 558.81,741.50 L 559.11,766.00 L 544.56,766.00 L 530.00,766.00 L 530.00,702.50 M 576.31,693.75 C583.30,691.73 586.91,684.81 585.70,675.77 C584.57,667.36 579.11,663.51 566.75,662.41 L 559.00,661.72 L 559.00,678.98 L 559.00,696.23 L 565.75,695.54 C569.46,695.17 574.21,694.36 576.31,693.75 M 815.24,702.75 L 815.50,639.50 L 843.50,639.57 C869.45,639.64 871.92,639.80 877.23,641.76 C888.21,645.82 894.71,651.68 899.18,661.56 C901.02,665.64 901.42,668.33 901.46,677.00 C901.50,686.33 901.20,688.13 898.84,693.18 C895.36,700.59 889.27,707.09 882.47,710.64 C879.47,712.21 877.00,713.88 877.00,714.33 C877.00,714.79 886.47,726.49 898.04,740.33 L 919.09,765.50 L 901.29,765.79 L 883.50,766.09 L 880.19,762.31 C878.37,760.23 869.59,749.08 860.69,737.53 L 844.50,716.54 L 844.23,741.27 L 843.97,766.00 L 829.48,766.00 L 814.99,766.00 L 815.24,702.75 M 862.50,693.53 C868.08,691.16 870.37,687.61 870.81,680.60 C871.60,668.28 866.69,663.62 851.60,662.35 L 844.00,661.71 L 844.00,678.97 L 844.00,696.23 L 851.75,695.52 C856.01,695.12 860.85,694.23 862.50,693.53 M 375.00,561.11 L 369.50,560.50 L 368.86,554.50 C368.00,546.50 367.99,442.89 368.85,431.71 C369.31,425.57 369.97,422.63 371.01,421.97 C371.83,421.46 379.31,421.02 387.64,421.02 C400.54,421.00 402.88,421.23 403.39,422.58 C403.73,423.45 404.00,439.35 404.00,457.92 C404.00,476.49 404.30,499.18 404.66,508.34 L 405.31,525.00 L 421.50,525.00 L 437.68,525.00 L 438.34,506.25 C438.70,495.94 439.00,476.25 439.00,462.50 C439.01,448.75 439.30,433.76 439.66,429.18 L 440.31,420.87 L 456.11,421.18 C466.62,421.39 472.30,421.90 473.10,422.69 C473.86,423.46 474.50,429.57 474.89,439.69 L 475.50,455.50 L 509.29,456.01 C537.75,456.44 543.23,456.76 544.03,458.01 C544.55,458.83 544.98,466.12 544.98,474.21 C545.00,487.83 544.85,489.01 543.03,489.98 C541.85,490.62 528.01,491.29 508.19,491.68 L 475.31,492.32 L 474.73,526.25 C474.41,544.91 473.85,560.48 473.49,560.84 C472.65,561.68 382.33,561.93 375.00,561.11 M 514.83,561.27 C510.23,560.90 510.15,560.83 509.47,556.85 C508.33,550.06 509.96,529.28 511.76,527.78 C512.96,526.79 524.65,526.43 564.15,526.17 L 615.00,525.84 L 615.00,493.99 C615.00,475.50 615.41,461.04 615.98,459.54 L 616.97,456.95 L 633.23,457.23 L 649.50,457.50 L 649.76,509.11 L 650.02,560.73 L 645.37,561.36 C640.59,562.02 523.19,561.93 514.83,561.27 M 545.48,419.75 C545.23,419.06 544.90,411.52 544.76,403.00 L 544.50,387.50 L 539.50,386.84 C536.75,386.47 513.30,386.14 487.38,386.09 L 440.26,386.00 L 439.64,382.25 C439.30,380.19 439.02,369.91 439.01,359.41 C439.00,348.91 438.71,334.84 438.35,328.16 L 437.69,316.00 L 421.50,316.00 L 405.31,316.00 L 404.66,327.25 C404.30,333.44 404.00,348.62 403.99,361.00 C403.98,373.38 403.58,384.12 403.10,384.87 C402.40,385.98 399.12,386.17 386.62,385.83 C378.03,385.60 370.58,384.98 370.05,384.45 C367.75,382.15 367.63,285.84 369.93,282.12 C370.69,280.88 497.42,280.40 504.99,281.61 L 509.00,282.26 L 509.00,298.52 L 509.00,314.79 L 493.25,315.46 C484.59,315.83 476.94,316.31 476.25,316.53 C475.32,316.84 475.00,321.13 475.00,333.47 L 475.00,350.00 L 518.25,350.08 C566.01,350.17 577.58,350.73 579.03,353.02 C579.55,353.83 579.98,360.64 579.98,368.14 C580.01,386.97 579.15,386.15 598.50,385.78 L 613.50,385.50 L 613.76,350.76 L 614.03,316.03 L 579.76,315.76 L 545.50,315.50 L 545.50,298.50 L 545.50,281.50 L 597.50,281.50 L 649.50,281.50 L 649.76,350.59 L 650.01,419.68 L 613.26,420.34 C558.08,421.33 546.02,421.22 545.48,419.75 Z" fill="rgba(0,0,0,1)"/>
</g>
</svg>