<?xml version="1.0" encoding="UTF-8"?>
<svg id="Layer_1" xmlns="http://www.w3.org/2000/svg" version="1.1" viewBox="0 0 1080 1080">
  <!-- Generator: Adobe Illustrator 29.0.1, SVG Export Plug-In . SVG Version: 2.1.0 Build 192)  -->
  <defs>
    <style>
      .st0 {
        fill: #7a76b7;
      }

      .st1 {
        fill: #fff;
      }
    </style>
  </defs>
  <rect class="st0" width="1080" height="1080" rx="122.9" ry="122.9"/>
  <g>
    <path class="st1" d="M489.3,170.1c-68.9,1.4-135.3,21.7-193,59-38.3,24.8-72.1,56.8-98.9,93.7-23.3,32.1-41.2,67.6-53.2,105.4-12.8,40.3-18.5,83.3-16.9,125.8,1.8,45.8,11.6,89.6,29.4,131.4,16.5,38.6,39.7,74.4,68.4,105.5,37.4,40.5,83.3,72.2,134.2,92.6,38.5,15.4,78.9,24.1,120.7,26.1,10.2.5,22.4.5,32.9,0,48.6-2.1,95.7-13.5,139.6-33.8,7.6-3.5,16.2-7.9,23.5-11.9,22.8-12.6,44.3-27.7,63.9-44.8,2.4-2.1,6.5-5.7,7.2-6.5,0,0-1.2.9-2.8,2.1-20,14.8-40.6,27.1-63,37.3-39.2,17.9-81.8,28.1-125.1,30.2-5.3.2-7.1.3-13.8.3-15.7.1-29.2-.6-44.2-2.4-42.5-5.1-83.7-18.2-121.2-38.5-23.3-12.6-45-27.8-64.9-45.4-8.1-7.2-17-16-24.4-23.9-26.9-29.2-48.7-62.9-64-99.3-15.8-37.5-24.6-76.9-26.5-117.8-.4-9.3-.4-20.8,0-30.4,1.6-35.9,8.7-71.3,21.2-104.6,10.5-28.1,24.6-54.6,42.1-79.1,19.4-27.2,42.9-51.7,69.5-72.2,16.2-12.5,34.8-24.4,52.2-33.3,1.2-.6,2.7-1.4,3.2-1.6,2.2-1.1,8.9-4.4,13-6.2,20.1-9.1,42.2-16.6,63.9-21.6,22.6-5.2,45-8,68.6-8.6,4.7-.1,17,0,20.7,0,10.5.5,18,1,26.7,2,46.2,5.2,90.5,19.7,130.7,42.7,12.6,7.2,23.9,14.6,35.9,23.6,1.1.9,2,1.5,1.9,1.4-.4-.4-2.6-2.4-4.6-4.2-29.3-26-62.5-47.2-98.3-62.7-37.8-16.4-77.9-26.3-119.2-29.4-6.1-.5-12.8-.8-19.4-.9-3.4,0-12.9-.1-16.2,0Z"/>
    <path class="st1" d="M544.4,245.8c-10.4.3-19.6,1-29.2,2.2-38.3,4.8-75.2,17.2-108.7,36.4-18.3,10.5-35.5,22.9-51.1,37.1-.9.9-1.7,1.6-1.7,1.6s.8-.6,1.9-1.4c38.8-29.1,84.9-47.3,133.2-52.6,14.4-1.6,29.3-2,43.9-1.3,51.2,2.6,100.2,19.4,142.2,48.8,21.9,15.3,41.9,34.3,58.4,55.3,14.9,19,27,39.5,36.4,61.7,5.5,13,10.4,27.7,13.6,41,.3,1.3.6,2.4.6,2.5,0,.2,1.5.2,28.2.2s28.1,0,28.1-.2c0,0-.2-.7-.3-1.4-.5-2.1-1-4.4-1.8-7.4-11.6-46.2-34.5-89.3-66.6-125-6.4-7.1-14.7-15.5-21.7-21.8-30.1-27.2-65.4-47.8-103.6-60.6-27.4-9.2-55.4-14.1-84.6-15.1-2.6,0-14.7-.1-17,0Z"/>
    <path class="st1" d="M491.5,311.7c-1.4.4-2.5,1.6-2.7,2.9,0,.3,0,27.2,0,81.5v81h7.5v-81.4s0-81.3,0-81.3l-.2-.6c-.3-.8-1.2-1.7-2-2-.7-.3-1.7-.3-2.4-.2Z"/>
    <path class="st1" d="M561.5,490.3c0,0-.8,4.9-1.8,10.8l-1.8,10.7,20.4,39.3c11.2,21.6,20.5,39.2,20.5,39.2,0,0,40.2-77,40.6-77.8l.3-.5-1.8-10.6c-1-5.8-1.8-10.7-1.8-10.8,0-.1-5.6,10.5-18.6,35.8-10.2,19.8-18.6,36-18.6,36.1,0,.1-4.7-8.8-18.7-35.9-10.2-19.8-18.6-36.1-18.6-36.1,0,0,0,0,0,0Z"/>
    <path class="st1" d="M378,499.2v6.7h63.7v-13.4h-63.7v6.7Z"/>
    <path class="st1" d="M484.9,540.3v47.8h13.6v-95.6h-13.6v47.8Z"/>
    <path class="st1" d="M693.1,499.3v6.8h54.6v-13.6h-54.6v6.8Z"/>
    <path class="st1" d="M787,499.3v6.8h54.6v-13.6h-54.6v6.8Z"/>
    <path class="st1" d="M884.8,499.3v6.8h18.2c13.1,0,18.4.1,19,.2,4.7.6,8,2.1,10.6,4.8,1.6,1.6,2.7,3.4,3.5,5.7,1.3,3.9,1.5,8.8.4,12.9-1.5,5.8-5.8,9.8-12.1,11.3-2.6.6-1.4.6-21.4.6h-18.2v46.7h13.6v-33h15s11.9,16.5,11.9,16.5l11.9,16.5h8c5.6,0,7.9,0,7.9,0,0,0-5.6-7.7-12.3-17.1-6.7-9.3-12.2-17-12.2-17.1s.6-.3,1.3-.5c10.8-3.4,18.2-12,20.3-23.4.5-2.6.6-3.7.6-6.9,0-3.4-.1-4.7-.7-7.4-1.6-7.7-5.6-13.6-12.1-17.6-1.4-.8-4.1-2.2-5.7-2.8-3.7-1.3-7.2-2.1-12.3-2.6-1.4-.1-3.5-.2-18.4-.2h-16.8s0,6.8,0,6.8Z"/>
    <path class="st1" d="M403,550.9v37.2h13.6v-74.4h-13.6v37.2Z"/>
    <path class="st1" d="M636.6,534.2c-2.8,5.4-5.1,9.9-5.2,10,0,.2.8,6,3.4,22.1l3.5,21.8h7c6.6,0,7,0,6.9-.2,0,0-2.4-14.4-5.3-31.8-2.9-17.4-5.3-31.6-5.3-31.6s-2.3,4.4-5.1,9.8Z"/>
    <path class="st1" d="M555.7,524.8c0,0-2.3,14.3-5.2,31.6-2.9,17.3-5.2,31.5-5.2,31.6,0,.1.9.1,6.9.1h6.9v-.6c.4-1.5,7-42.7,7-42.9,0-.2-1.9-3.8-5.1-10-2.8-5.4-5.2-9.8-5.2-9.9,0,0,0,0,0,0Z"/>
    <path class="st1" d="M693.1,540.4v6.7h47.8v-13.4h-47.8v6.7Z"/>
    <path class="st1" d="M787,540.4v6.7h47.8v-13.4h-47.8v6.7Z"/>
    <path class="st1" d="M693.1,581.2v6.9h54.6v-13.6h-17.1c-9.4,0-21.7,0-27.3,0h-10.2c0,0,0,6.8,0,6.8Z"/>
    <path class="st1" d="M787,581.2v6.9h54.6v-13.6h-17.1c-9.4,0-21.7,0-27.3,0h-10.2c0,0,0,6.8,0,6.8Z"/>
    <path class="st1" d="M563,609.9c.2.2,104.1,60.1,104.6,60.4.5.2.6.2,1.5.2s1,0,1.7-.4c2.3-1.1,2.8-4.2,1-6-.4-.4-8.2-5-47.1-27.4l-46.6-26.9h-7.5c-4.3,0-7.5,0-7.4,0Z"/>
    <path class="st1" d="M782,610.3c0,.3-.4,1.4-.7,2.5-11.5,41.4-32.6,79.6-61.9,111.5-5.4,5.9-12.5,13-18.6,18.4-23.5,21.1-50.2,37.9-79.3,49.8-26.2,10.7-54.4,17.3-82.7,19.4-7.4.5-11.1.7-20.1.7s-9.9,0-15.8-.4c-27.3-1.6-53.8-7.1-79.4-16.6-7.3-2.7-15.5-6.2-22.2-9.4-3.7-1.8-4.5-2.2-7.2-3.6-13.7-7-25.5-14.4-38.1-23.8-1.3-1-2.2-1.6-2-1.4,1,.9,4,3.6,5.3,4.8,21.8,19,46.4,34.7,72.7,46.5,28.9,13,59.8,21.2,91.5,24.3,9.4.9,16.4,1.3,26.6,1.3,8.7,0,14.4,0,21.4-.5,31.1-2,61-8.7,89.7-20.2,14.6-5.8,29.5-13.2,43-21.3,17-10.3,32.7-22,47.3-35.5,6.4-5.9,14.4-13.9,20.3-20.6,31.6-35.3,54.2-77.6,65.8-123.3l.8-3.1h-56.4v.5Z"/>
  </g>
</svg>